HIERARCHY
ROOT Hips
{
	OFFSET	0.00	0.00	0.00
	CHANNELS 6 Xposition Yposition Zposition Zrotation Xrotation Yrotation
	JOINT LeftUpLeg
	{
		OFFSET	 0.126116	-0.065224	 0.014019
		CHANNELS 3 Zrotation Xrotation Yrotation
		JOINT LeftLeg
		{
			OFFSET	 0.000000	 0.569914	 0.000000
			CHANNELS 3 Zrotation Xrotation Yrotation
			JOINT LeftFoot
			{
				OFFSET	 0.000000	 0.544423	 0.000000
				CHANNELS 3 Zrotation Xrotation Yrotation
				JOINT LeftToeBase
				{
					OFFSET	 0.000000	 0.207117	 0.000000
					CHANNELS 3 Zrotation Xrotation Yrotation
					End Site
					{
						OFFSET	 0.000000	 0.207117	 0.000000
					}
				}
			}
		}
	}
	JOINT RightUpLeg
	{
		OFFSET	-0.124023	-0.065224	 0.008373
		CHANNELS 3 Zrotation Xrotation Yrotation
		JOINT RightLeg
		{
			OFFSET	 0.000000	 0.570047	 0.000000
			CHANNELS 3 Zrotation Xrotation Yrotation
			JOINT RightFoot
			{
				OFFSET	 0.000000	 0.544354	 0.000000
				CHANNELS 3 Zrotation Xrotation Yrotation
				JOINT RightToeBase
				{
					OFFSET	 0.000000	 0.207540	 0.000000
					CHANNELS 3 Zrotation Xrotation Yrotation
					End Site
					{
						OFFSET	 0.000000	 0.207540	 0.000000
					}
				}
			}
		}
	}
	JOINT Spine
	{
		OFFSET	 0.000184	 0.117403	 0.007763
		CHANNELS 3 Zrotation Xrotation Yrotation
		JOINT Spine1
		{
			OFFSET	 0.000000	 0.137269	 0.000000
			CHANNELS 3 Zrotation Xrotation Yrotation
			JOINT Spine2
			{
				OFFSET	 0.000000	 0.156879	 0.000000
				CHANNELS 3 Zrotation Xrotation Yrotation
				JOINT LeftShoulder
				{
					OFFSET	 0.080501	 0.160143	 0.002496
					CHANNELS 3 Zrotation Xrotation Yrotation
					JOINT LeftArm
					{
						OFFSET	 0.000000	 0.164363	 0.000000
						CHANNELS 3 Zrotation Xrotation Yrotation
						JOINT LeftForeArm
						{
							OFFSET	 0.000000	 0.364576	 0.000000
							CHANNELS 3 Zrotation Xrotation Yrotation
							JOINT LeftHand
							{
								OFFSET	 0.000000	 0.360812	 0.000000
								CHANNELS 3 Zrotation Xrotation Yrotation
								JOINT LeftHandIndex1
								{
									OFFSET	 0.000000	 0.086006	 0.000000
									CHANNELS 3 Zrotation Xrotation Yrotation
									JOINT LeftHandIndex2
									{
										OFFSET	 0.000000	 0.047237	 0.000000
										CHANNELS 3 Zrotation Xrotation Yrotation
										JOINT LeftHandIndex3
										{
											OFFSET	-0.004284	 0.038165	 0.000551
											CHANNELS 3 Zrotation Xrotation Yrotation
											End Site
											{
												OFFSET	-0.004284	 0.038165	 0.000551
											}
										}
									}
								}
							}
						}
					}
				}
				JOINT Neck
				{
					OFFSET	 0.000000	 0.176489	 0.000000
					CHANNELS 3 Zrotation Xrotation Yrotation
					JOINT Head
					{
						OFFSET	 0.000000	 0.077941	 0.001747
						CHANNELS 3 Zrotation Xrotation Yrotation
						End Site
						{
							OFFSET	 0.000000	 0.077941	 0.001747
						}
					}
				}
				JOINT RightShoulder
				{
					OFFSET	-0.080363	 0.159706	-0.000306
					CHANNELS 3 Zrotation Xrotation Yrotation
					JOINT RightArm
					{
						OFFSET	 0.000000	 0.164196	 0.000000
						CHANNELS 3 Zrotation Xrotation Yrotation
						JOINT RightForeArm
						{
							OFFSET	 0.000000	 0.365611	 0.000000
							CHANNELS 3 Zrotation Xrotation Yrotation
							JOINT RightHand
							{
								OFFSET	 0.000000	 0.360648	 0.000000
								CHANNELS 3 Zrotation Xrotation Yrotation
								JOINT RightHandIndex1
								{
									OFFSET	 0.000000	 0.069977	 0.000000
									CHANNELS 3 Zrotation Xrotation Yrotation
									JOINT RightHandIndex2
									{
										OFFSET	 0.000000	 0.052305	 0.000000
										CHANNELS 3 Zrotation Xrotation Yrotation
										JOINT RightHandIndex3
										{
											OFFSET	 0.009002	 0.042196	 0.000782
											CHANNELS 3 Zrotation Xrotation Yrotation
											End Site
											{
												OFFSET	 0.009002	 0.042196	 0.000782
											}
										}
									}
								}
							}
						}
					}
				}
			}
		}
	}
}
MOTION
Frames:    11
Frame Time: 0.03333334
 0.543564	 1.035362	-0.147335	 31.243090	-27.004820	-100.244000	-114.595300	 78.851300	-89.335090	 62.708800	-84.076950	 67.810870	 61.603210	 28.483320	-62.876810	 1.626681	 49.205220	-7.550094	 76.776450	 73.446580	 87.590350	-14.758970	-71.309280	-15.173590	-69.261070	 44.682670	 74.616680	-1.642177	 33.250680	 2.844253	-4.162516	 11.233990	 40.627890	-7.360389	 9.612037	 7.032451	 5.887676	 21.478760	 4.295141	-107.753900	 6.386162	 92.043650	 33.762340	 48.448500	-18.469990	 12.243930	-0.215373	 34.289670	 0.633018	 2.380773	 39.215970	-4.437692	 3.822153	-8.092245	-6.772088	 6.684646	 1.737322	 4.963066	-4.014628	-0.346955	 7.912025	-3.348732	 3.221798	 5.766616	 3.671388	-44.163560	 84.743660	 10.093640	-89.172330	-15.582140	 29.917140	 63.175920	-87.078350	-6.129757	-27.032270	 36.379260	 33.897250	 14.309740	-3.708071	 15.405100	-1.565863	 14.294370	 21.398930	-6.333554	-8.239867	-2.131385	 0.447455
 0.597189	 1.085783	-0.174402	 22.136110	-17.435680	-89.302770	-162.616800	 40.049860	-54.819090	 57.473240	-83.759450	 64.453760	 61.883420	 37.636950	-71.763450	 0.287253	 44.154270	-4.561908	 112.372700	 56.673860	 66.429540	-10.509780	-64.709570	-11.351890	-70.392930	 45.251630	 74.647740	-1.644999	 33.296620	 2.847057	-3.459139	 11.108060	 44.865320	-12.031640	-1.928863	 5.809028	 13.666840	 22.332270	 2.761301	-103.717800	 4.408551	 91.221240	 36.713090	 56.540080	-23.152130	 26.943630	-0.817009	 42.088180	-34.435890	 9.429216	 49.831410	-2.943133	 2.000903	-8.308104	-6.908762	 7.568805	 1.910804	 4.963066	-4.014628	-0.346955	 11.273710	 2.329636	 2.534307	 1.247091	 6.593799	-43.836240	 88.202710	 6.999668	-91.379430	-26.393960	 26.440080	 76.063740	-72.671750	-5.853560	-34.501480	 26.072440	 41.543140	-2.989180	-3.185998	 16.331730	-2.068724	 14.267190	 21.668380	-6.397933	-8.239867	-2.131385	 0.447455
 0.646791	 1.136397	-0.180623	 16.866950	-10.398410	-75.111050	-166.502000	 11.929260	-48.522550	 10.586000	-63.349330	 17.778440	 42.318800	 46.153490	-65.394580	 0.816436	 40.694120	-4.846783	 123.488800	 38.430550	 69.231160	-6.794910	-53.929370	-7.982057	-65.925580	 44.795520	 69.472570	-1.648120	 33.345620	 2.849893	-1.931344	 9.214920	 44.337080	-12.586620	-3.724892	 5.147257	 15.393360	 17.934480	 0.787943	-101.601900	 1.654837	 91.182960	 55.350780	 54.391380	-40.136440	 14.630220	-0.132398	 45.637020	-37.885000	 10.730970	 50.685250	-2.337084	 6.394242	-8.108776	-7.002076	 8.090239	 2.014453	 4.963066	-4.014628	-0.346955	 14.490240	 3.711018	 0.843696	-1.813591	 5.722980	-44.917350	 89.277820	 3.016344	-92.076710	-28.049770	-4.838812	 88.594590	-14.482160	-2.009671	-35.700920	-0.011813	 39.949640	-15.137740	-2.913767	 16.734830	-2.448926	 14.285720	 22.123610	-6.527442	-8.239867	-2.131385	 0.447455
 0.710667	 1.141057	-0.163063	 14.186790	-6.456580	-59.151620	-169.449400	 9.467730	-41.577870	 6.175655	-49.401770	 10.627050	 56.939410	 54.047310	-90.927980	 2.280792	 36.882250	-7.502705	 123.282700	 24.157100	 79.980930	-5.771812	-49.404460	-6.631013	-61.784630	 44.921270	 65.243590	-1.667338	 33.320190	 2.891419	-1.781952	 7.599607	 39.836220	-7.358959	-0.541702	 5.099384	 10.841430	 11.451630	-2.565993	-101.498300	-1.597129	 92.489650	 54.798830	 47.616550	-38.503930	 14.429130	-0.102381	 45.741440	-29.623050	 16.257640	 46.573600	-2.880007	 15.195720	-7.508397	-7.049566	 8.240221	 2.044190	 4.963066	-4.014628	-0.346955	 16.864990	-0.278281	-1.662695	-2.685302	 0.933949	-47.254730	 88.102940	-1.829631	-91.402660	-22.982530	-6.690983	 96.838430	-13.753920	-1.789822	-36.574830	-1.297960	 22.992180	-16.219710	-2.911559	 16.592040	-2.696078	 14.345300	 22.741940	-6.715074	-8.239867	-2.131385	 0.447455
 0.797241	 1.143796	-0.157160	 11.992700	-3.774808	-47.140890	-170.885100	 14.952980	-33.198890	 6.223108	-49.617380	 10.579980	 76.127330	 50.578830	-103.914100	 1.513320	 25.486760	-7.464314	 125.537600	 17.991930	 86.092730	-4.633941	-43.149590	-5.072769	-58.395010	 42.132260	 59.014210	-1.747096	 32.983730	 3.083527	-1.312300	 6.725039	 33.168900	-4.723605	 1.433690	 4.835070	 7.366810	 9.113452	-6.181746	-101.607900	-3.365964	 96.200390	 57.717380	 37.402710	-41.957470	 13.605800	-0.091858	 42.616310	-18.256370	 15.620120	 46.768620	-3.927890	 14.452980	-7.198060	-7.098599	 8.401435	 2.074236	 4.963066	-4.014628	-0.346955	 16.581780	-7.206986	-4.464653	-0.259790	-4.123396	-48.531100	 87.444570	-6.172506	-90.723920	-20.907520	-6.391357	 96.921970	-12.929010	-1.550033	-34.151060	-1.406808	 0.188094	-10.271230	-2.909453	 16.457060	-2.929710	 14.364760	 23.160380	-6.835413	-8.239867	-2.131385	 0.447455
 0.865991	 1.169639	-0.145549	 9.568375	-3.112947	-41.985950	-173.770500	 15.484970	-29.256770	 5.485524	-46.035720	 8.816604	 77.230550	 49.342030	-99.762120	 1.397981	 23.660680	-7.474004	 134.689600	 22.917880	 70.409220	-5.195330	-46.415540	-5.146724	-57.933350	 46.934490	 62.895360	-1.882902	 32.051780	 3.522532	-0.709870	 6.234605	 24.517720	-5.738272	 1.941315	 4.281523	 7.384601	 7.681658	-8.949386	-104.981500	-9.687440	 98.752140	 60.713680	 30.033960	-42.156030	 12.255480	-0.104054	 36.718670	-14.689830	 15.110270	 40.521330	-5.198473	 15.099280	-6.697918	-7.149652	 8.576982	 2.106611	 4.963066	-4.014628	-0.346955	 15.024210	-8.059895	-7.865087	 1.512622	-3.002530	-48.521260	 88.172310	-3.698444	-91.083720	-16.735570	-6.198473	 87.563930	-11.665790	-1.234462	-29.288990	 7.378833	-11.121740	 3.210353	-2.907334	 16.324880	-3.158469	 14.379790	 23.549030	-6.946268	-8.239867	-2.131385	 0.447455
 0.918688	 1.200367	-0.132382	 6.707592	-3.328524	-39.546990	-175.790600	 12.812270	-26.930470	 4.568249	-40.822050	 6.683743	 74.117350	 49.031210	-92.855450	 1.398012	 23.660650	-7.474021	 147.196100	 25.723220	 52.983730	-4.757513	-43.900930	-4.366720	-56.128570	 49.371310	 63.037760	-1.822952	 30.796940	 3.717859	-0.167243	 5.883292	 14.296160	-6.046020	 0.812699	 3.376942	 6.743841	 6.632988	-10.893600	-107.950000	-16.226390	 100.591100	 63.872530	 26.074620	-43.219580	 10.498740	-0.133819	 28.662520	-13.823220	 11.794180	 33.435790	-6.298760	 15.588240	-6.255519	-7.200554	 8.757030	 2.140448	 4.963066	-4.014628	-0.346955	 12.942060	-8.219188	-10.668270	 2.161014	-0.743792	-47.862960	 89.631220	-0.462425	-91.661320	-14.234960	-5.622689	 77.401410	-9.982676	-0.958525	-22.030600	 14.714600	-15.180970	 16.156700	-2.905329	 16.196290	-3.380990	 14.394270	 23.923050	-7.053062	-8.239867	-2.131385	 0.447455
 0.958281	 1.227444	-0.119983	 3.561388	-3.931113	-38.918590	-176.669300	 7.793518	-25.895240	 3.599238	-34.250060	 4.473770	 69.573700	 48.950550	-85.661930	 1.398030	 23.660640	-7.474030	 155.807200	 22.411440	 41.524520	-3.469915	-35.079070	-2.640718	-48.039710	 48.133270	 55.660420	-1.526182	 29.316930	 3.563840	 0.216638	 5.412876	 4.074348	-5.221982	-0.082386	 2.699741	 4.743684	 5.076417	-11.883130	-109.654500	-21.701500	 102.084600	 66.771860	 24.236890	-45.966560	 8.502024	-0.171700	 19.407490	-14.602050	 5.668635	 27.402970	-7.092999	 15.547930	-5.964310	-7.249452	 8.934522	 2.174641	 4.963066	-4.014628	-0.346955	 10.476820	-8.984734	-12.567580	 1.495852	 1.509276	-46.656600	 91.624520	 2.012156	-92.261350	-13.193450	-5.029126	 69.141820	-8.013037	-0.761277	-12.853070	 16.700010	-14.458630	 24.998180	-2.903467	 16.074830	-3.591131	 14.408680	 24.276250	-7.154256	-8.239867	-2.131385	 0.447455
 0.980212	 1.244707	-0.110924	 1.660065	-4.311210	-39.187250	-177.358300	 3.987825	-25.999070	 2.899464	-28.750460	 2.614818	 66.005980	 48.947290	-80.164660	 1.398039	 23.660630	-7.474036	 160.993100	 18.546680	 33.865280	-2.473552	-26.600400	-1.205978	-41.748420	 46.199470	 49.581490	-1.326141	 28.231380	 3.458854	 0.508145	 4.954742	-5.777845	-3.619499	 0.042572	 2.137660	 2.409032	 3.430405	-12.314870	-110.851800	-25.934280	 102.843300	 69.080240	 23.583450	-47.650040	 6.355466	-0.209818	 9.426089	-16.423660	 3.027321	 22.533530	-7.541767	 15.632980	-5.777406	-7.289722	 9.056834	 2.199024	 4.963066	-4.014628	-0.346955	 8.338760	-9.631106	-13.726260	 0.967918	 2.856434	-45.598270	 92.799820	 4.277567	-92.867800	-12.244860	-4.314021	 63.287550	-5.874807	-0.551798	-2.943926	 16.289620	-13.292760	 31.465180	-2.901751	 15.957060	-3.794847	 14.423330	 24.618660	-7.252697	-8.239867	-2.131385	 0.447455
 0.986132	 1.250623	-0.105058	 1.374680	-4.434670	-40.592670	-178.137900	 2.467250	-27.579960	 2.565324	-25.894680	 1.425945	 64.715030	 49.297320	-78.001500	 1.398039	 23.660620	-7.474037	 162.635200	 16.140630	 30.483980	-1.820574	-20.235220	-0.180156	-38.622350	 44.323010	 45.658650	-1.246756	 27.675970	 3.408915	 0.657770	 4.574448	-14.438080	-1.612988	 0.726954	 1.809067	-0.025189	 1.995060	-12.040670	-111.477200	-28.456760	 102.733000	 70.660540	 24.265050	-48.040720	 4.811554	-0.235319	-0.446923	-19.122280	 5.238742	 19.729240	-7.534230	 15.884330	-5.728457	-7.318055	 9.105499	 2.210115	 4.963066	-4.014628	-0.346955	 6.683413	-10.193970	-13.878720	 0.698504	 3.034206	-44.820960	 92.875520	 6.262399	-93.388210	-11.428650	-3.202651	 60.548070	-4.312817	-0.398266	 6.474217	 13.015120	-11.053060	 34.530150	-2.900053	 15.845740	-3.987401	 14.437800	 24.942230	-7.346023	-8.239867	-2.131385	 0.447455
 0.985357	 1.252509	-0.102671	 1.108552	-4.488518	-41.772160	-178.285400	 1.643151	-28.840550	 2.417142	-24.574610	 0.382275	 63.739000	 49.936580	-76.704410	 1.398037	 23.660610	-7.474037	 163.656800	 14.556310	 27.914670	-1.446509	-16.325610	 0.774990	-36.737870	 43.428770	 43.141430	-1.185789	 27.245480	 3.370870	 0.722072	 4.276985	-21.639830	 0.449470	 2.014300	 1.324056	-2.260636	 0.459408	-11.793260	-111.965200	-30.362330	 102.618900	 71.801590	 24.280570	-48.136370	 6.798095	-0.208066	-9.793992	-21.423630	 8.131852	 17.301980	-7.514810	 16.161980	-5.685052	-7.341402	 9.126370	 2.215970	 4.963066	-4.014628	-0.346955	 5.425509	-10.570410	-13.890330	 0.370012	 2.995382	-44.286710	 92.941350	 7.852278	-93.815350	-10.935700	-2.525943	 58.378480	-6.284296	-0.560068	 15.326380	 10.172470	-9.671355	 37.175540	-2.898635	 15.739770	-4.170654	 14.452150	 25.250250	-7.435165	-8.239867	-2.131385	 0.447455
